<svg width="42" height="44" viewBox="0 0 42 44" fill="none" xmlns="http://www.w3.org/2000/svg">
<g clip-path="url(#clip0_15_110)">
<path fill-rule="evenodd" clip-rule="evenodd" d="M26.4514 3.02902C29.3155 4.37568 31.6587 5.51523 31.6582 5.56158C31.6569 5.6812 24.7844 8.8228 24.5404 8.81515C24.4295 8.81179 23.6245 8.47734 22.7518 8.07201L21.1646 7.33519L19.4313 8.13939L17.6981 8.94373L14.8596 7.79247C10.5826 6.0577 10.1383 5.8676 10.208 5.80373C10.3004 5.71899 11.8345 4.97511 15.9965 2.99728C18.008 2.04138 19.9603 1.10414 20.3351 0.914494C20.7099 0.724845 21.0677 0.572284 21.1302 0.575237C21.1927 0.578191 23.5873 1.6824 26.4514 3.02902ZM39.0132 8.90049L41.9946 10.2905V16.3913C41.9946 19.7467 41.9555 22.4919 41.9074 22.4919C41.8596 22.4919 40.3927 21.918 38.6478 21.2165L35.4752 19.941V13.5105L33.9249 14.2729C32.7302 14.8598 31.5348 15.4456 30.3387 16.0302L28.3029 17.0251L27.3971 16.6553C26.8289 16.4231 26.2619 16.1886 25.6961 15.9518C25.2589 15.768 24.1855 15.3316 23.311 14.9819C22.4365 14.6321 21.6269 14.2802 21.5121 14.2001C21.3596 14.0935 23.2191 13.1661 28.3896 10.7694C32.2871 8.9629 35.601 7.49055 35.7538 7.49761C35.9066 7.50467 37.3733 8.13588 39.0132 8.90049ZM9.67065 9.29085C11.7012 10.1183 13.364 10.8283 13.3659 10.8688C13.3677 10.9092 12.2609 11.5032 10.9063 12.1885C9.55187 12.874 8.4436 13.4715 8.4436 13.5165C8.4436 13.5614 9.6422 14.0856 11.107 14.6816C12.572 15.2775 16.2748 16.7869 19.3357 18.0358L29.5919 22.2203C32.1718 23.273 34.4973 24.2219 34.7596 24.3291C40.0293 26.4824 41.4777 27.0798 41.6766 27.1824C41.8766 27.2857 41.9219 27.8855 41.9575 30.8963L42 34.4873L39.3338 35.7135L36.6678 36.9396L32.9708 35.4337C30.9374 34.6054 29.2738 33.8844 29.2738 33.8313C29.2738 33.7783 29.6496 33.5573 30.1086 33.34C30.5679 33.1227 31.5159 32.6416 32.2155 32.2707C32.9151 31.8997 33.6127 31.5594 33.7659 31.5143C33.919 31.4693 34.042 31.3906 34.0395 31.3392C34.037 31.288 32.409 30.59 30.422 29.788C26.5627 28.2305 23.6093 27.0301 17.2686 24.442C14.4333 23.2849 11.5976 22.1285 8.76162 20.9728C6.26914 19.9574 3.3712 18.7714 2.3217 18.3373L0.413589 17.5481L0.371166 13.9163L0.328526 10.2845L3.03266 9.03172C4.52001 8.34275 5.79131 7.78071 5.85796 7.78276C5.92456 7.78466 7.64026 8.46323 9.67065 9.29085ZM1.13808 22.3932C1.53656 22.5689 2.32365 22.8978 2.88715 23.1241C3.45066 23.3504 4.52 23.7859 5.2634 24.0921L6.615 24.6485L6.64583 27.837C6.66285 29.5906 6.73439 31.0176 6.80481 31.0083C6.96479 30.9868 9.49797 29.8142 12.0443 28.5826C13.8822 27.6938 13.9977 27.6585 14.4295 27.8515C14.6792 27.9632 16.1714 28.5673 17.7456 29.1942C19.3199 29.821 20.6591 30.3748 20.7221 30.4249C20.785 30.475 17.6167 32.025 13.6814 33.8695L6.52638 37.2232L3.46991 35.796C1.78903 35.0112 0.359692 34.2953 0.293869 34.2053C0.145699 34.0028 0.158398 22.046 0.306732 22.0622C0.365402 22.0685 0.739594 22.2175 1.13808 22.3932ZM18.0636 36.4275C18.5938 36.6332 19.1238 36.8393 19.6537 37.0456C21.2539 37.6705 20.9403 37.6912 22.844 36.8358C24.1119 36.2661 24.6584 36.0903 24.8957 36.1756C25.0736 36.2396 26.605 36.8615 28.2991 37.5576C29.9931 38.2537 31.4378 38.8232 31.5097 38.8232C32.2204 38.8232 31.0388 39.4604 26.4794 41.5364L21.1322 43.9708L18.8824 42.9682C17.645 42.4168 15.1492 41.3126 13.336 40.5145C11.523 39.7161 10.062 39.0423 10.0893 39.0168C10.1169 38.9915 11.636 38.2874 13.4654 37.4521L16.7916 35.9336L18.0636 36.4275Z" fill="black"/>
</g>
<defs>
<clipPath id="clip0_15_110">
<rect width="41.8543" height="43.4437" fill="white" transform="matrix(-1 0 0 1 42 0.549683)"/>
</clipPath>
</defs>
</svg>
