<svg width="296" height="294" viewBox="0 0 296 294" fill="none" xmlns="http://www.w3.org/2000/svg">
<rect x="10.5" y="9.5" width="274" height="275" stroke="black" stroke-width="3"/>
<rect x="1.5" y="1.5" width="293" height="291" stroke="black" stroke-width="3"/>
<path d="M148 49L157.392 110.212L195.5 61.9955L173.659 119.801L230.272 97.5L183.05 136.411L243 146L183.05 155.589L230.272 194.5L173.659 172.199L195.5 230.004L157.392 181.788L148 243L138.608 181.788L100.5 230.004L122.341 172.199L65.7276 194.5L112.95 155.589L53 146L112.95 136.411L65.7276 97.5L122.341 119.801L100.5 61.9955L138.608 110.212L148 49Z" fill="black"/>
</svg>
