<svg width="48" height="41" viewBox="0 0 48 41" fill="none" xmlns="http://www.w3.org/2000/svg">
<path d="M18.3891 37.7844C16.9941 37.7844 17.2314 37.2582 16.7501 35.9292L12.6484 22.431L44.2221 3.69925" fill="black"/>
<path d="M18.3892 37.7845C19.4655 37.7845 19.9411 37.2927 20.5419 36.7081L26.2826 31.1263L19.1221 26.8083" fill="black"/>
<path d="M19.1211 26.8092L36.4722 39.6281C38.4527 40.7207 39.8812 40.1553 40.3749 37.7901L47.4378 4.5077C48.1612 1.60866 46.3328 0.293095 44.4383 1.15324L2.96493 17.1448C0.133831 18.2805 0.151054 19.8601 2.44923 20.5634L13.0924 23.8853L37.7313 8.34055C38.8948 7.6354 39.9625 8.01429 39.0861 8.79215L19.1211 26.8092Z" fill="black"/>
</svg>
