<svg width="47" height="47" viewBox="0 0 47 47" fill="none" xmlns="http://www.w3.org/2000/svg">
<g clip-path="url(#clip0_15_100)">
<path d="M12.8459 12.034L29.4914 34.2852H33.2606L16.6152 12.034H12.8459Z" fill="black"/>
<path d="M23.0204 0.392334C10.4463 0.392334 0.253174 10.5855 0.253174 23.1596C0.253174 35.7337 10.4463 45.9269 23.0204 45.9269C35.5946 45.9269 45.7877 35.7337 45.7877 23.1596C45.7877 10.5855 35.5946 0.392334 23.0204 0.392334ZM28.602 36.0631L21.024 25.9306L11.6449 36.0631H9.2341L19.9469 24.4902L9.30139 10.2561H17.5062L24.4851 19.5877L33.1225 10.2561H35.5333L25.5623 21.0286L36.8068 36.0631H28.602Z" fill="black"/>
</g>
<defs>
<clipPath id="clip0_15_100">
<rect width="46.0927" height="46.0927" fill="white" transform="translate(0 0.139069)"/>
</clipPath>
</defs>
</svg>
